<?xml version="1.0" encoding="UTF-8"?>
<svg 
    width='44'
    height='44'
    viewBox='0 0 44 44'
    version='1.1'
>
    <title>编组 13备份</title>
    <defs>
        <linearGradient x1="14.2562311%" y1="11.8578217%" x2="87.0549455%" y2="85.7786438%" id="linearGradient-1">
            <stop stop-color="#EEEEEE" offset="0%"></stop>
            <stop stop-color="#E8E8E8" offset="100%"></stop>
        </linearGradient>
        <circle id="path-2" cx="12" cy="12" r="12"></circle>
        <linearGradient x1="50%" y1="7.5892111%" x2="50%" y2="28.0499828%" id="linearGradient-4">
            <stop stop-color="#6D4944" offset="0%"></stop>
            <stop stop-color="#472723" offset="100%"></stop>
        </linearGradient>
        <linearGradient x1="50%" y1="0%" x2="50%" y2="100%" id="linearGradient-5">
            <stop stop-color="#FFBEAA" offset="0%"></stop>
            <stop stop-color="#FB644F" offset="100%"></stop>
        </linearGradient>
        <linearGradient x1="50%" y1="85.1841457%" x2="50%" y2="31.1543614%" id="linearGradient-6">
            <stop stop-color="#FFD9D2" offset="0%"></stop>
            <stop stop-color="#FFB2A5" offset="100%"></stop>
        </linearGradient>
        <linearGradient x1="50%" y1="21.6672207%" x2="50%" y2="86.9723053%" id="linearGradient-7">
            <stop stop-color="#FFDCD5" offset="0%"></stop>
            <stop stop-color="#FFD9D1" offset="100%"></stop>
        </linearGradient>
    </defs>
    <g id="页面-1" stroke="none" stroke-width="1" fill="none" fill-rule="evenodd">
        <g id="编组-12备份-2">
            <g id="默认头像备份-3">
                <circle id="Mask" fill="url(#linearGradient-1)" fill-rule="nonzero" cx="12" cy="12" r="12"></circle>
                <g id="Combined-Shape">
                    <mask id="mask-3" fill="white">
                        <use xlink:href="#path-2"></use>
                    </mask>
                    <use id="Mask" fill="#F5F5F5" xlink:href="#path-2"></use>
                    <path d="M12.4514046,3.57302433 C17.3260988,3.74416548 18.4236887,9.67284709 18.484782,11.4223305 C18.5255108,12.5886528 18.0089371,14.5864508 16.9350608,17.4157244 C18.0428606,17.8001157 18.6461664,18.2859995 18.7449782,18.8733758 C18.7890338,20.134962 14.2681148,20.6583098 11.3640268,20.7597228 C8.45993892,20.8611358 5.41488402,20.1914058 5.37708451,19.1089694 C5.339285,18.026533 6.01819935,17.8084637 7.24996403,17.421787 C6.65901823,17.4424232 5.7110298,15.1381545 5.59698652,11.8723823 C5.48294324,8.60661001 6.18137855,7.20391914 7.18984432,5.75127711 C8.11061741,4.42495178 10.0633602,3.71201159 11.9234447,3.59138873 L12.1884193,3.57818398 L12.4514046,3.57302433 Z M13.592458,7.39744478 L13.5890238,7.41087001 C13.2645149,8.37147632 10.3630525,12.5853747 7.25034041,11.22438 C7.01167624,11.8757199 6.90547334,12.4273532 6.93173172,12.8792799 C6.6168959,12.4810073 6.44990991,11.8903666 6.43077377,11.1073579 C5.28031184,11.2672633 5.56520029,13.1478764 6.94402696,13.4757589 C6.97073816,14.2406676 8.37279163,17.5345823 11.4577468,17.9475677 C11.5874084,17.9882563 11.7177522,18.0072214 11.8473252,18.0026967 L12.0653119,17.9883855 L12.2847531,17.9874213 C12.4143261,17.9828965 12.5430295,17.9548853 12.6695069,17.9055935 C15.7181689,17.2780761 16.8870351,13.8943828 16.8603239,13.1294741 C17.9565648,12.7864291 18.2648399,11.4760598 17.7249518,10.9487704 C17.5698285,11.4785602 17.3075347,12.0091672 16.9148213,12.5306628 C16.9148213,11.5562423 16.9148213,11.4560378 16.4389779,11.0653801 C15.1651203,10.9417089 14.3461692,9.06320096 13.6552511,7.40048376 C13.6339539,7.39953034 13.6131554,7.39846448 13.592458,7.39744478 Z" id="形状结合" fill="url(#linearGradient-4)" mask="url(#mask-3)"></path>
                    <path d="M20.4545455,22.9133656 L20.4545455,23.9222001 L3.54545455,23.9222001 L3.54545455,22.9133656 C3.54545455,22.9133656 3.58550239,20.7060359 7.77272727,19.4833286 C7.77272727,19.4833286 9.29009569,18.7650385 9.77511962,18.2727273 C9.77511962,18.2727273 10.6917703,19.2815617 12,19.2815617 C13.3082297,19.2815617 14.2248804,18.2727273 14.2248804,18.2727273 C14.7099043,18.7650385 16.2272727,19.4833286 16.2272727,19.4833286 C20.4411962,20.6939299 20.4545455,22.9133656 20.4545455,22.9133656 L20.4545455,22.9133656 Z" id="Shape" fill="url(#linearGradient-5)" mask="url(#mask-3)"></path>
                    <path d="M9.81818182,16.9090909 L14.1818182,16.9090909 L14.1818182,18.5454545 C13.5276989,19.1120384 12.8004261,19.3953303 12,19.3953303 C11.1995739,19.3953303 10.4723011,19.1120384 9.81818182,18.5454545 L9.81818182,16.9090909 Z" id="Rectangle" fill="url(#linearGradient-6)" mask="url(#mask-3)"></path>
                </g>
            </g>
            <g id="编组-7" transform="translate(5.725012, 7.446743)" fill="url(#linearGradient-7)">
                <path d="M7.95150001,0.00872712263 L7.97578474,0.0631869302 C8.00417776,0.131297195 8.03279533,0.199694254 8.06165956,0.268244709 L8.23798193,0.680321038 C8.8667093,2.12156069 9.62373185,3.51279311 10.7139658,3.61863739 C11.1898091,4.0092951 11.1898091,4.10949957 11.1898091,5.08392009 C11.5496523,4.60607389 11.7999944,4.12057771 11.9580915,3.63566997 C12.5924006,4.12698439 12.25962,5.53868882 11.0986646,5.85795458 C11.0986646,6.62332952 9.8124212,9.96416867 6.74371632,10.484907 C6.61559571,10.5297548 6.48599316,10.5532573 6.35634119,10.5532573 L6.137,10.5465625 L5.91864664,10.5532573 C5.78899467,10.5532573 5.65939211,10.5297548 5.5312295,10.4845658 C2.46256663,9.96416867 1.17632323,6.62332952 1.17632323,5.85795458 C-0.173068259,5.48686841 -0.403622573,3.63993329 0.703944632,3.47710756 C0.700448058,4.3530393 0.868035237,5.00409588 1.20671955,5.43253726 C1.18046117,4.98061048 1.28666407,4.42897716 1.52532824,3.77763733 C4.60078708,5.12234347 7.47002257,1.0247997 7.85125708,7.89779897e-15 C7.88248489,0.0033968226 7.91684885,0.00599025164 7.95150001,0.00872712263 Z" id="形状结合"></path>
            </g>
        </g>
    </g>
</svg>